<svg xmlns="http://www.w3.org/2000/svg" width="1800" height="520" viewBox="0 0 1800 520" fill="none">
  <rect width="1800" height="520" fill="#000000" />
  <g fill="#FFFFFF">
    <path d="M222 -5L222 123L393 123Q439 123 462 147Q485 171 485 215Q485 259 462 282.5Q439 306 393 306L222 306L222 405L385 405Q461 405 520 386.5Q579 368 613 327Q647 286 647 216L647 202Q647 137 617 90.5Q587 44 529 19.5Q471 -5 385 -5ZM82 -5L82 736L242 736L242 -5ZM222 332L222 430L366 430Q413 430 434 454Q455 478 455 518Q455 560 434 584Q413 608 366 608L222 608L222 736L356 736Q482 736 549.5 683Q617 630 617 532L617 517Q617 449 582.5 408Q548 367 489.5 349.5Q431 332 356 332Z" transform="translate(310.00 335.30) scale(0.208887 -0.208887)" />
    <path d="M80 0L80 730L241 730L241 0ZM15 612L15 730L241 730L241 612Z" transform="translate(459.14 335.30) scale(0.208887 -0.208887)" />
    <path d="M340 -19Q268 -19 212 3.5Q156 26 117.5 65Q79 104 59 154.5Q39 205 39 261L39 284Q39 341 59.5 392.5Q80 444 119.5 483Q159 522 215 544.5Q271 567 340 567Q411 567 466.5 544.5Q522 522 561 483Q600 444 621 392.5Q642 341 642 284L642 261Q642 205 622 154.5Q602 104 563.5 65Q525 26 469 3.5Q413 -19 340 -19ZM340 116Q387 116 418 136Q449 156 465.5 192Q482 228 482 272Q482 319 465 354.5Q448 390 416.5 411Q385 432 340 432Q296 432 264 411Q232 390 215.5 354.5Q199 319 199 272Q199 228 215 192Q231 156 263 136Q295 116 340 116Z" transform="translate(529.54 335.30) scale(0.208887 -0.208887)" />
    <path d="M319 -19Q248 -19 195.5 4.5Q143 28 108 68Q73 108 56 158.5Q39 209 39 263L39 282Q39 338 57 389.5Q75 441 110 481Q145 521 197.5 544Q250 567 318 567Q392 567 449 538.5Q506 510 540 459Q574 408 578 342L421 342Q417 379 391.5 404.5Q366 430 318 430Q278 430 251.5 410Q225 390 212 355Q199 320 199 272Q199 228 211 192.5Q223 157 249.5 137.5Q276 118 319 118Q351 118 373.5 129.5Q396 141 409.5 161.5Q423 182 426 209L582 209Q579 141 544 89.5Q509 38 451 9.5Q393 -19 319 -19Z" transform="translate(676.39 335.30) scale(0.208887 -0.208887)" />
    <path d="M459 0L286 256L209 256L432 548L600 548L390 276L392 354L639 0ZM73 0L73 730L233 730L233 0Z" transform="translate(808.61 335.30) scale(0.208887 -0.208887)" />
    <path d="M106 0L106 730L236 730L452 243L468 243L683 730L814 730L814 0L716 0L716 623L723 621L516 151L396 151L188 621L196 623L196 0Z" transform="translate(942.09 335.30) scale(0.208887 -0.208887)" />
    <path d="M118 0L118 534L214 534L214 0ZM36 458L36 534L214 534L214 458ZM145 620Q113 620 97.5 637Q82 654 82 680Q82 706 97.5 723Q113 740 145 740Q177 740 192.5 723Q208 706 208 680Q208 654 192.5 637Q177 620 145 620Z" transform="translate(1138.86 335.30) scale(0.208887 -0.208887)" />
    <path d="M92 0L92 534L168 534L168 305L156 305Q156 384 177.5 438.5Q199 493 243 521.5Q287 550 354 550L358 550Q459 550 507.5 487Q556 424 556 305L556 0L460 0L460 325Q460 387 425 424.5Q390 462 329 462Q266 462 227 423Q188 384 188 319L188 0Z" transform="translate(1207.79 335.30) scale(0.208887 -0.208887)" />
    <path d="M315 -18Q258 -18 210 3Q162 24 126.5 62Q91 100 71.5 150Q52 200 52 258L52 276Q52 333 71 383Q90 433 124.5 471Q159 509 206.5 530.5Q254 552 312 552Q373 552 423 526.5Q473 501 505 447Q537 393 541 307L501 371L501 730L597 730L597 0L521 0L521 237L549 237Q545 146 511 89.5Q477 33 425.5 7.5Q374 -18 315 -18ZM328 66Q377 66 417 88Q457 110 481 151.5Q505 193 505 249L505 295Q505 350 480.5 388.5Q456 427 415.5 447.5Q375 468 327 468Q274 468 233.5 443Q193 418 170.5 373Q148 328 148 267Q148 206 171 160.5Q194 115 235 90.5Q276 66 328 66Z" transform="translate(1346.08 335.30) scale(0.208887 -0.208887)" />
  </g>
</svg>